# xmcd
#
# Track frame offsets: 
#        150
#        14102
#        31687
#        47625
#        66435
#        87750
#        99767
#        119897
#        137412
#        151107
#
# Disc length: 2334 seconds
#
# Revision: 0
# Processed by: cddbd v1.5.2PL0 Copyright (c) Steve Scherf et al.
# Submitted via: ExactAudioCopy v0.99pb4
#
DISCID=7a091c0a
DTITLE=Cowboy - Cowboy
DYEAR=1977
DGENRE=Country/Rock
TTITLE0=Taking it all the way
TTITLE1=Now that I know
TTITLE2=Pat's song
TTITLE3=Straight into love
TTITLE4=Everybody knows your name
TTITLE5=What can I call it
TTITLE6=Nobody elses's man
TTITLE7=Except for real
TTITLE8=Satisfy
TTITLE9=River to the sea
EXTD=
EXTT0=
EXTT1=
EXTT2=
EXTT3=
EXTT4=
EXTT5=
EXTT6=
EXTT7=
EXTT8=
EXTT9=
PLAYORDER=
